<svg width="20" height="20" viewBox="0 0 20 20" fill="none" xmlns="http://www.w3.org/2000/svg">
<path d="M14.5862 17.4395H13.981V17.9994H14.5862V17.4395Z" fill="#FF6D00"/>
<path d="M14.5862 3.34668H13.981V4.29552H14.5862V3.34668Z" fill="#FF6D00"/>
<path d="M14.5862 5.18848H13.981V11.6912H14.5862V5.18848Z" fill="#FF6D00"/>
<path d="M15.7967 4.29688H15.1914V5.87604H15.7967V4.29688Z" fill="#FF6D00"/>
<path d="M15.7967 9.07227H15.1914V14.6698H15.7967V9.07227Z" fill="#FF6D00"/>
<path d="M10.8884 5.87598H10.2832V12.3938H10.8884V5.87598Z" fill="#FF6D00"/>
<path d="M10.8884 16.1895H10.2832V18H10.8884V16.1895Z" fill="#FF6D00"/>
<path d="M10.8884 3.34668H10.2832V3.75237H10.8884V3.34668Z" fill="#FF6D00"/>
<path d="M9.67263 5.18848H9.06738V9.00396H9.67263V5.18848Z" fill="#FF6D00"/>
<path d="M9.67263 9.65137H9.06738V12.394H9.67263V9.65137Z" fill="#FF6D00"/>
<path d="M9.67263 16.9131H9.06738V17.9977H9.67263V16.9131Z" fill="#FF6D00"/>
<path d="M9.67263 14.1787H9.06738V14.6699H9.67263V14.1787Z" fill="#FF6D00"/>
<path d="M13.3723 17.1494H12.7671V17.9993H13.3723V17.1494Z" fill="#FF6D00"/>
<path d="M13.3723 2.50098H12.7671V12.3934H13.3723V2.50098Z" fill="#FF6D00"/>
<path d="M13.3723 14.1787H12.7671V14.6699H13.3723V14.1787Z" fill="#FF6D00"/>
<path d="M16.909 5.18848H16.3037V6.5648H16.909V5.18848Z" fill="#FF6D00"/>
<path d="M16.909 14.1787H16.3037V14.6699H16.909V14.1787Z" fill="#FF6D00"/>
<path d="M8.46169 4.29688H7.85645V8.83321H8.46169V4.29688Z" fill="#FF6D00"/>
<path d="M8.46169 10.0586H7.85645V14.6704H8.46169V10.0586Z" fill="#FF6D00"/>
<path d="M8.46169 17.4258H7.85645V17.9991H8.46169V17.4258Z" fill="#FF6D00"/>
<path d="M7.24831 3.75684H6.64307V8.82795H7.24831V3.75684Z" fill="#FF6D00"/>
<path d="M7.24831 16.876H6.64307V17.9992H7.24831V16.876Z" fill="#FF6D00"/>
<path d="M7.24831 10.7656H6.64307V12.8947H7.24831V10.7656Z" fill="#FF6D00"/>
<path d="M6.032 15.8066H5.42676V17.5115H6.032V15.8066Z" fill="#FF6D00"/>
<path d="M6.032 11.4854H5.42676V13.943H6.032V11.4854Z" fill="#FF6D00"/>
<path d="M6.032 4.29688H5.42676V9.11317H6.032V4.29688Z" fill="#FF6D00"/>
<path d="M4.81863 5.50195H4.21338V9.49682H4.81863V5.50195Z" fill="#FF6D00"/>
<path d="M4.81863 12.3936H4.21338V16.8762H4.81863V12.3936Z" fill="#FF6D00"/>
<path d="M3.60525 7.28223H3V10.0868H3.60525V7.28223Z" fill="#FF6D00"/>
<path d="M12.159 6.95703H11.5537V14.6718H12.159V6.95703Z" fill="#FF6D00"/>
<path d="M12.159 3.34668H11.5537V4.29552H12.159V3.34668Z" fill="#FF6D00"/>
<path d="M12.1018 16.876H11.4966V17.9992H12.1018V16.876Z" fill="#FF6D00"/>
<path d="M12.159 2H11.5537V2.50124H12.159V2Z" fill="#FF6D00"/>
</svg>
