<svg width="24" height="24" viewBox="0 0 24 24" fill="none" xmlns="http://www.w3.org/2000/svg">
<path d="M13.5 15.75H6.75M17.25 8.25H10.5" stroke="#F2AEA1" stroke-opacity="0.6" stroke-linecap="round" stroke-linejoin="round"/>
<path d="M15.75 18C16.9926 18 18 16.9926 18 15.75C18 14.5074 16.9926 13.5 15.75 13.5C14.5074 13.5 13.5 14.5074 13.5 15.75C13.5 16.9926 14.5074 18 15.75 18Z" stroke="#F2AEA1" stroke-opacity="0.6" stroke-linecap="round" stroke-linejoin="round"/>
<path d="M8.25 10.5C9.49264 10.5 10.5 9.49264 10.5 8.25C10.5 7.00736 9.49264 6 8.25 6C7.00736 6 6 7.00736 6 8.25C6 9.49264 7.00736 10.5 8.25 10.5Z" stroke="#F2AEA1" stroke-opacity="0.6" stroke-linecap="round" stroke-linejoin="round"/>
</svg>
